<svg xmlns="http://www.w3.org/2000/svg" width="800" height="800" viewBox="0 0 800 800"><ellipse cx="400" cy="700" rx="250" ry="28" fill="#2E2A24" stroke="none" stroke-width="0" opacity="0.12"/><path d="M95 180 Q175 145 255 180 Q335 145 415 180 Q495 145 575 180 Q655 145 705 180 L705 610 Q625 575 545 610 Q465 575 385 610 Q305 575 225 610 Q145 575 95 610 Z" fill="#FBF4E4" stroke="#2E2A24" stroke-width="13" stroke-linecap="round" stroke-linejoin="round"/><path d="M185 470 L280 390 L400 435 L520 335 L625 405" fill="none" stroke="#D86E1F" stroke-width="14" stroke-linecap="round" stroke-linejoin="round"/><circle cx="185" cy="470" r="15" fill="#D8A23A" stroke="#2E2A24" stroke-width="5"/><circle cx="280" cy="390" r="15" fill="#D8A23A" stroke="#2E2A24" stroke-width="5"/><circle cx="400" cy="435" r="15" fill="#D8A23A" stroke="#2E2A24" stroke-width="5"/><circle cx="520" cy="335" r="15" fill="#D8A23A" stroke="#2E2A24" stroke-width="5"/><circle cx="625" cy="405" r="15" fill="#D8A23A" stroke="#2E2A24" stroke-width="5"/><text x="400" y="765" text-anchor="middle" font-family="Georgia,serif" font-size="24" font-weight="bold" letter-spacing="1" fill="#2E2A24">ROUTE MAP</text></svg>